<?xml version="1.0" standalone="no"?>
<!DOCTYPE svg PUBLIC "-//W3C//DTD SVG 20010904//EN"
 "http://www.w3.org/TR/2001/REC-SVG-20010904/DTD/svg10.dtd">
<svg version="1.0" xmlns="http://www.w3.org/2000/svg"
 width="260.000000pt" height="260.000000pt" viewBox="0 0 260.000000 260.000000"
 preserveAspectRatio="xMidYMid meet">
<metadata>
Created by potrace 1.14, written by Peter Selinger 2001-2017
</metadata>
<g transform="translate(0.000000,260.000000) scale(0.100000,-0.100000)"
fill="#000000" stroke="none">
<path d="M0 1599 l0 -1002 28 -26 c15 -14 30 -26 34 -26 13 0 19 -14 23 -47 2
-18 4 -33 5 -33 1 0 3 -8 5 -18 2 -10 11 -27 19 -36 9 -10 16 -22 16 -28 0 -6
7 -16 15 -23 8 -7 15 -22 15 -35 0 -14 9 -26 26 -33 14 -7 23 -16 20 -20 -3
-5 1 -18 9 -29 10 -14 22 -19 44 -15 17 2 31 9 31 14 0 7 5 6 14 -1 7 -6 20
-9 29 -5 27 10 54 -13 62 -53 4 -20 17 -50 30 -65 23 -27 23 -30 7 -47 -9 -10
-19 -17 -22 -15 -3 1 -6 -11 -7 -27 l-2 -29 934 0 c826 0 934 2 929 15 -7 17
21 21 31 5 3 -5 19 -10 36 -10 16 0 29 5 29 10 0 15 17 12 35 -6 11 -12 25
-14 48 -9 18 3 59 9 92 13 56 7 60 9 63 34 3 21 -1 28 -13 28 -13 0 -16 -6
-11 -25 7 -29 0 -32 -25 -9 -16 14 -19 14 -42 -1 -13 -8 -39 -20 -56 -25 -26
-7 -35 -5 -51 12 -16 18 -22 19 -35 8 -11 -9 -19 -10 -23 -4 -4 6 -16 14 -27
19 -16 8 -11 10 25 13 29 2 48 -1 55 -10 5 -8 28 -15 50 -16 l40 -2 -30 14
c-20 10 -24 15 -12 15 21 1 22 8 2 28 -8 8 -12 20 -8 26 4 7 8 21 8 32 0 11 4
25 8 32 4 7 0 13 -10 15 -10 2 4 10 33 20 28 9 66 32 87 52 l37 36 0 86 0 87
-32 -34 c-18 -19 -39 -35 -45 -35 -28 -2 -33 -5 -33 -19 0 -8 -9 -19 -20 -25
-25 -13 -26 -2 -3 17 14 11 14 13 3 10 -8 -2 -20 -13 -26 -25 -8 -16 -13 -19
-22 -10 -8 8 -7 14 5 23 18 13 11 51 -7 40 -6 -4 -10 -3 -9 2 1 4 1 10 -1 13
-14 37 -8 48 45 74 30 16 59 25 65 21 6 -4 27 -4 46 -1 l34 7 0 69 0 69 -38
-17 c-70 -31 -85 -46 -86 -82 -1 -32 -5 -36 -49 -52 -27 -10 -46 -14 -42 -9 3
5 -4 13 -16 16 -14 5 -18 10 -11 17 6 6 8 17 5 25 -9 24 18 101 47 131 14 16
45 53 67 83 22 30 59 74 82 99 l41 45 0 833 0 832 -1300 0 -1300 0 0 -1001z
m415 981 c3 -5 -1 -10 -9 -10 -9 0 -16 5 -16 10 0 6 4 10 9 10 6 0 13 -4 16
-10z m-305 -220 c0 -5 -5 -10 -11 -10 -5 0 -7 5 -4 10 3 6 8 10 11 10 2 0 4
-4 4 -10z m1390 -862 c0 -4 -7 -8 -15 -8 -21 0 -19 -26 5 -76 25 -50 42 -148
34 -187 -6 -31 10 -59 31 -51 7 3 24 -5 36 -17 17 -17 19 -24 9 -27 -7 -3 -19
3 -26 13 -11 15 -15 16 -27 3 -13 -13 -12 -18 4 -39 20 -26 24 -39 10 -39 -5
0 -11 9 -14 20 -3 11 -12 20 -21 20 -9 0 -16 5 -16 10 0 6 -5 10 -10 10 -6 0
-9 -12 -7 -27 3 -22 8 -27 25 -25 20 3 22 -1 22 -52 l0 -55 -60 0 c-32 0 -64
-2 -70 -6 -15 -9 -109 -17 -121 -10 -5 4 -69 6 -141 6 -79 0 -138 5 -145 11
-23 19 -15 38 16 38 17 0 32 4 35 9 6 9 -27 18 -99 26 -35 4 -38 3 -22 -9 10
-8 15 -20 11 -30 -7 -19 -35 -21 -51 -5 -9 9 -10 7 -6 -10 3 -11 10 -21 16
-21 7 0 8 -3 1 -10 -10 -10 -114 19 -114 33 0 11 47 27 80 27 16 0 30 7 34 16
6 17 -10 78 -27 102 -16 21 -23 191 -12 266 l11 71 52 3 c29 2 73 9 99 17 26
8 50 12 55 9 5 -3 15 -1 23 6 7 6 16 7 19 2 9 -15 178 -8 211 8 26 14 38 14
98 1 37 -8 67 -18 67 -23z m-633 -14 c-3 -3 -12 -4 -19 -1 -8 3 -5 6 6 6 11 1
17 -2 13 -5z m817 -118 c4 -49 9 -92 11 -97 3 -4 0 -20 -7 -36 -11 -27 -11
-27 -20 27 -8 46 -2 208 7 198 1 -2 6 -43 9 -92z m452 -134 c-12 -11 -17 7 -9
34 l8 29 3 -28 c2 -16 1 -31 -2 -35z m-1 -35 c-3 -12 -12 -63 -20 -112 -17
-118 -29 -161 -49 -180 -17 -18 -36 -12 -36 10 0 9 6 12 15 9 9 -4 16 2 19 18
7 30 28 149 30 168 4 32 31 110 38 110 5 0 6 -10 3 -23z m-90 -37 c-3 -5 -8
-45 -10 -87 -3 -43 -9 -98 -14 -123 -7 -37 -8 -28 -5 45 7 126 14 175 25 175
6 0 7 -4 4 -10z m-352 -35 c-3 -8 -12 -15 -19 -15 -12 0 -12 4 -4 20 12 23 32
18 23 -5z m-43 -130 c0 -8 -2 -15 -4 -15 -2 0 -6 7 -10 15 -3 8 -1 15 4 15 6
0 10 -7 10 -15z m357 -127 c-3 -8 -6 -5 -6 6 -1 11 2 17 5 13 3 -3 4 -12 1
-19z m-126 -155 c5 -5 4 -15 -1 -23 -8 -12 -11 -12 -28 3 -27 25 -41 21 -57
-15 -14 -33 -14 -33 -15 -6 0 14 -3 34 -7 44 -6 15 -1 17 47 11 29 -4 57 -10
61 -14z m-146 -3 c-3 -5 -12 -10 -18 -10 -7 0 -6 4 3 10 19 12 23 12 15 0z
m108 -36 c3 -4 -1 -17 -9 -30 -9 -13 -13 -28 -9 -34 3 -5 -1 -10 -9 -10 -19 0
-20 20 -4 55 11 25 19 30 31 19z m692 -634 c3 -5 1 -10 -4 -10 -6 0 -11 5 -11
10 0 6 2 10 4 10 3 0 8 -4 11 -10z"/>
<path d="M1210 1026 c0 -2 7 -6 15 -10 8 -3 15 -1 15 4 0 6 -7 10 -15 10 -8 0
-15 -2 -15 -4z"/>
<path d="M0 55 c0 -8 9 -24 20 -35 18 -18 32 -20 123 -19 56 1 93 4 82 6 -11
3 -33 14 -48 25 -16 11 -31 18 -34 14 -3 -3 -11 1 -17 10 -9 12 -20 13 -54 6
-25 -6 -44 -6 -48 -1 -8 14 -24 10 -24 -6z"/>
</g>
</svg>
